<?xml version="1.0" encoding="utf-8"?>
<!-- Generator: Adobe Illustrator 17.1.0, SVG Export Plug-In . SVG Version: 6.00 Build 0)  -->
<!DOCTYPE svg PUBLIC "-//W3C//DTD SVG 1.1//EN" "http://www.w3.org/Graphics/SVG/1.1/DTD/svg11.dtd">
<svg version="1.1" id="Layer_1" xmlns="http://www.w3.org/2000/svg" xmlns:xlink="http://www.w3.org/1999/xlink" x="0px" y="0px"
	 viewBox="0 0 320 157.4" enable-background="new 0 0 320 157.4" xml:space="preserve">
<g>
	<g>
		<path fill="#66606D" d="M155.2,93.3v-24c0-16.8-12.9-30.4-29-30.8c-0.2,0-0.5,0-0.7,0h0h0l0,0c0,0-0.1,0-0.1,0c0,0,0,0,0,0
			c-0.1,0-0.2,0-0.3,0c-0.1,0-0.2,0-0.3,0c-8.3,0.2-15.1,3.8-19.8,9.5v-0.4v-6.8H82.2h-6.8v6.8h2.3c2.5,0,4.6,2,4.6,4.6v41.1
			c0,2.5-2,4.6-4.6,4.6H73v11.4h38.8V97.9h-2.3c-2.5,0-4.6-2-4.6-4.6V65.9c0-8.8,7.2-16,16-16c6.3,0,11.4,7.2,11.4,16v27.4
			c0,2.5-2,4.6-4.6,4.6h-2.3v11.4h6.8h20.5h11.4V97.9h-4.6C157.3,97.9,155.2,95.8,155.2,93.3z"/>
		<path fill="#66606D" d="M320,40.8h-6.8H304h-2.3h-2.3h-13.7v6.8h6.4c2.5,0,3.7,2,2.8,4.4l-4.6,11.5L278.6,93l-12.2-40.8l0,0
			c-0.8-2.5,0.7-4.6,3.2-4.6h4.8v-6.8h-11.4h-25.1h-2.7H231h-2.7h-6.8h-4.6h-9.1v6.8h2.5c2.5,0,3.9,2,3.2,4.6l0,0L202,93.3
			l-11.4-41.1l0,0c-0.8-2.5,0.7-4.6,3.2-4.6h4.8v-6.8h-11.4h-4.6h-20.5h-6.8v6.8h4.3c2.4,0,5,1.9,5.9,4.3l17.2,57.3h13.7h11.4
			L224.9,52c0.8-2.4,3.4-4.3,5.9-4.3h0.2h4.1h0.2c2.4,0,5,1.9,5.9,4.3l17.2,57.3h0l5.9,19.6l-3.1,7.8c-3,5.5-8.2,9.3-14.6,9.3
			c-3.9,0-7.4-1.3-10.3-3.6c-0.5-0.5-1.9-1.8-3.1-4.3c3.8-1.8,6.5-5.8,6.5-10.3c0-6.3-5.1-11.4-11.4-11.4s-11.4,5.1-11.4,11.4
			c0,16.4,13.3,29.7,29.7,29.7c13.2,0,24.5-8.7,28.3-20.7h0l1.8-4.6l32-79.9l0,0c1-2.5,3.9-4.6,6.4-4.6h5L320,40.8z"/>
		<path fill="#66606D" d="M36.5,38.5C16.4,38.5,0,54.9,0,75.1c0,20.2,16.4,36.5,36.5,36.5c16.2,0,29.9-10.5,34.7-25.1H57.1h-2h-0.2
			c-3.1,6.8-9.1,10.8-15.5,10.8c-5.4,0-10.2-3-13.4-8c-0.2-0.3-0.3-0.6-0.5-0.9c-2.9-4.8-3.4-10.1-3.4-10.1h0.7h50
			c0.1-1,0.1-2.1,0.1-3.2C73,54.9,56.7,38.5,36.5,38.5z M54.2,68.2H23.4h-0.6c0-10.1,7.2-18.3,16-18.3c8.8,0,16,8.2,16,18.3H54.2z"
			/>
	</g>
	<g>
		<path fill="#66606D" d="M93.8,4.3l-4.1,14.2h-5.1L80.4,4.3l-0.1,14.4h-4.4L76.5,0h6.8l3.9,14.1L91.1,0h6.7l0.6,18.8h-4.5L93.8,4.3
			z"/>
		<path fill="#66606D" d="M119.9,18.8h-4.7l-1.4-4h-7l-1.4,4h-4.7L107.4,0h6L119.9,18.8z M110.4,3.7l-2.5,7.4h4.9L110.4,3.7z"/>
		<path fill="#66606D" d="M129.4,18.8c-0.1,0-6.7,0-6.7,0V0c0,0,5.8,0,7.1,0c6.6,0,10.4,3.7,10.4,9.3
			C140.1,15,136.3,18.8,129.4,18.8z M129.5,3.8h-2V15h2.2c3.5,0,5.6-1.8,5.6-5.5C135.3,5.6,133.4,3.8,129.5,3.8z"/>
		<path fill="#66606D" d="M143.9,18.8V0h13.7v3.8h-9v3.6h7.3v3.8h-7.3v3.7h9v3.8H143.9z"/>
		<path fill="#66606D" d="M177.9,18.8h-5L168,0h5.1l2.5,13.3L179,0h5.5l3.4,13.3L190.4,0h4.9l-5,18.8h-5l-3.6-13.4L177.9,18.8z"/>
		<path fill="#66606D" d="M198.7,18.8V0h4.8v18.8H198.7z"/>
		<path fill="#66606D" d="M217.7,4v14.8h-4.8V4h-6V0h16.7v4H217.7z"/>
		<path fill="#66606D" d="M239.3,18.8v-7.4h-7.5v7.4H227V0h4.8v7.3h7.5V0h4.8v18.8H239.3z"/>
	</g>
</g>
</svg>
